<svg width="42" height="64" viewBox="0 0 42 64" fill="none" xmlns="http://www.w3.org/2000/svg">
<path d="M39.6112 0H2.38877C1.56703 0 0.899902 0.667006 0.899902 1.48886V52.1112C0.899902 52.9328 1.56691 53.6001 2.38877 53.6001C3.21075 53.6001 3.87763 52.9327 3.87763 52.1112V2.97785H38.1222V4.04755L22.4889 15.3975V63.9999L38.2066 52.5882C38.4072 53.1742 38.9569 53.5995 39.6112 53.5995C40.4327 53.5995 41.1 52.9328 41.1 52.1106V1.48825C41.1001 0.666268 40.4327 0 39.6112 0ZM28.3951 40.8313C27.6936 40.8313 27.1083 39.9647 26.9572 38.8037H25.2806V37.5009H26.981C27.1591 36.4112 27.7205 35.6093 28.3951 35.6093C29.2108 35.6093 29.8717 36.7775 29.8717 38.2206C29.8724 39.6622 29.2108 40.8313 28.3951 40.8313Z" fill="white"/>
</svg>
