<svg width="512" height="512" viewBox="0 0 512 512" fill="none" xmlns="http://www.w3.org/2000/svg">
<path d="M347.216 301.211L275.829 247.671V138.609C275.829 127.643 266.965 118.779 255.999 118.779C245.033 118.779 236.169 127.643 236.169 138.609V257.587C236.169 263.833 239.104 269.723 244.101 273.451L323.419 332.94C326.988 335.617 331.153 336.906 335.297 336.906C341.345 336.906 347.294 334.189 351.181 328.954C357.766 320.208 355.981 307.775 347.216 301.211Z" fill="white"/>
<path d="M256 0C114.833 0 0 114.833 0 256C0 397.167 114.833 512 256 512C397.167 512 512 397.167 512 256C512 114.833 397.167 0 256 0ZM256 472.341C136.725 472.341 39.659 375.275 39.659 256C39.659 136.725 136.725 39.659 256 39.659C375.295 39.659 472.341 136.725 472.341 256C472.341 375.275 375.275 472.341 256 472.341Z" fill="white"/>
</svg>
